<?xml version="1.0" encoding="utf-8"?>
<!-- Generator: Adobe Illustrator 23.0.5, SVG Export Plug-In . SVG Version: 6.00 Build 0)  -->
<svg version="1.1" id="Layer_1" xmlns="http://www.w3.org/2000/svg" xmlns:xlink="http://www.w3.org/1999/xlink" x="0px" y="0px"
	 viewBox="0 0 1920 256.11" style="enable-background:new 0 0 1920 256.11;" xml:space="preserve">
<style type="text/css">
	.st0{fill:#333333;}
	.st1{fill:#E6E7E7;}
	.st2{fill:#FFFFFF;}
	.st3{fill:#282828;}
	.st4{fill:#FFFBF1;}
	.st5{fill:#0032D3;}
</style>
<g>
	<g>
		<path d="M581.05,91.99V54.16h26.44v144.8h-30.51l-40.27-64.47c-10.98-17.22-19.59-31.73-25.83-43.52
			c0.54,15.19,0.81,38.57,0.81,70.16v37.83h-26.44V54.16h30.51l40.47,64.47c12.07,19.52,20.61,34.03,25.62,43.52
			C581.32,141.95,581.05,118.56,581.05,91.99z"/>
		<path d="M728.49,148.32v6.1h-78.5c0.95,8.95,3.76,15.69,8.44,20.24c4.68,4.54,10.95,6.81,18.81,6.81c11.66,0,19.66-5.02,24-15.05
			h24.61c-2.71,10.71-8.41,19.22-17.08,25.52c-8.68,6.3-19.25,9.46-31.73,9.46c-15.59,0-28.2-5.01-37.83-15.05
			c-9.63-10.03-14.44-23.32-14.44-39.86c0-16.54,4.74-29.83,14.24-39.86c9.63-10.03,22.17-15.05,37.62-15.05
			c15.86,0,28.47,5.22,37.83,15.66C723.81,117.68,728.49,131.38,728.49,148.32z M676.43,111.51c-15.05,0-23.79,8.34-26.23,25.01
			h52.67c-1.09-7.73-3.93-13.83-8.54-18.3C689.71,113.75,683.75,111.51,676.43,111.51z"/>
		<path d="M794.38,94.02v19.52h-20.74v56.74c0,3.39,0.92,5.76,2.75,7.12c1.83,1.36,4.91,2.03,9.25,2.03h8.74v19.52
			c-5.56,0.54-10.03,0.81-13.42,0.81c-11.39,0-19.69-2.14-24.91-6.41c-5.22-4.27-7.83-11.08-7.83-20.44v-59.38h-16.27V94.02h16.27
			v-30.5h25.42v30.5H794.38z"/>
		<path d="M835.05,198.96h-25.62V94.02h25.62V198.96z M834.85,80.4h-25.22v-24h25.22V80.4z"/>
		<path d="M931.45,108.67V94.02h24.81v144.8h-25.62v-53.49c-7.46,10.71-18.24,16.07-32.34,16.07c-14.51,0-25.96-5.01-34.37-15.05
			c-8.54-10.03-12.81-23.32-12.81-39.86c0-16.81,4.27-30.17,12.81-40.06c8.27-9.9,19.73-14.85,34.37-14.85
			C912.67,91.58,923.72,97.28,931.45,108.67z M877.35,147.31c0,10.85,2.37,19.05,7.12,24.61c4.74,5.56,11.32,8.34,19.73,8.34
			c8.4,0,15.05-2.91,19.93-8.74c4.74-5.83,7.12-14.16,7.12-25.01c0-10.85-2.37-19.18-7.12-25.01c-4.75-5.83-11.39-8.74-19.93-8.74
			c-8.27,0-14.81,3.05-19.62,9.15C879.76,127.99,877.35,136.46,877.35,147.31z"/>
		<path d="M1045.74,152.8V94.02h25.62v104.94h-24.81v-15.25c-8,11.79-18.98,17.69-32.94,17.69c-11.26,0-20.17-3.29-26.74-9.86
			c-6.58-6.57-9.86-15.89-9.86-27.96V94.02h25.62v65.28c0,13.29,6.57,19.93,19.73,19.93c6.51,0,12.03-2.34,16.57-7.02
			C1043.47,167.54,1045.74,161.07,1045.74,152.8z"/>
		<path d="M1191.15,148.32v6.1h-78.5c0.95,8.95,3.76,15.69,8.44,20.24c4.68,4.54,10.95,6.81,18.81,6.81c11.66,0,19.66-5.02,24-15.05
			h24.61c-2.71,10.71-8.41,19.22-17.08,25.52c-8.68,6.3-19.25,9.46-31.73,9.46c-15.59,0-28.2-5.01-37.83-15.05
			c-9.63-10.03-14.44-23.32-14.44-39.86c0-16.54,4.74-29.83,14.24-39.86c9.62-10.03,22.17-15.05,37.62-15.05
			c15.86,0,28.47,5.22,37.83,15.66C1186.47,117.68,1191.15,131.38,1191.15,148.32z M1139.08,111.51c-15.05,0-23.79,8.34-26.23,25.01
			h52.67c-1.09-7.73-3.93-13.83-8.54-18.3C1152.37,113.75,1146.4,111.51,1139.08,111.51z"/>
		<path d="M1257.04,94.02v19.52h-20.74v56.74c0,3.39,0.92,5.76,2.75,7.12c1.83,1.36,4.91,2.03,9.25,2.03h8.74v19.52
			c-5.56,0.54-10.03,0.81-13.42,0.81c-11.39,0-19.7-2.14-24.91-6.41c-5.22-4.27-7.83-11.08-7.83-20.44v-59.38h-16.27V94.02h16.27
			v-30.5h25.42v30.5H1257.04z"/>
		<path d="M1318.65,94.02v19.52h-20.74v56.74c0,3.39,0.92,5.76,2.75,7.12c1.83,1.36,4.91,2.03,9.25,2.03h8.74v19.52
			c-5.56,0.54-10.03,0.81-13.42,0.81c-11.39,0-19.7-2.14-24.91-6.41c-5.22-4.27-7.83-11.08-7.83-20.44v-59.38h-16.27V94.02h16.27
			v-30.5h25.42v30.5H1318.65z"/>
		<path d="M1430.71,148.32v6.1h-78.5c0.95,8.95,3.76,15.69,8.44,20.24c4.68,4.54,10.95,6.81,18.81,6.81c11.66,0,19.66-5.02,24-15.05
			h24.61c-2.71,10.71-8.41,19.22-17.08,25.52c-8.68,6.3-19.25,9.46-31.73,9.46c-15.59,0-28.2-5.01-37.83-15.05
			c-9.63-10.03-14.44-23.32-14.44-39.86c0-16.54,4.74-29.83,14.24-39.86c9.62-10.03,22.17-15.05,37.62-15.05
			c15.86,0,28.47,5.22,37.83,15.66C1426.03,117.68,1430.71,131.38,1430.71,148.32z M1378.65,111.51c-15.05,0-23.79,8.34-26.23,25.01
			h52.67c-1.09-7.73-3.93-13.83-8.54-18.3C1391.93,113.75,1385.97,111.51,1378.65,111.51z"/>
		<path d="M1519.98,54.16v120.19h68.94v24.61h-96.4V54.16H1519.98z"/>
		<path d="M1697.52,198.96h-25.62c-1.22-2.17-2.17-6.44-2.85-12.81c-7.05,10.17-18.3,15.25-33.76,15.25
			c-11.52,0-20.71-2.78-27.56-8.34c-6.85-5.56-10.27-13.28-10.27-23.18c0-19.12,13.42-30.03,40.27-32.74l15.86-1.42
			c5.29-0.68,9.08-1.93,11.39-3.76c2.3-1.83,3.46-4.58,3.46-8.24c0-4.47-1.46-7.76-4.37-9.86c-2.92-2.1-7.83-3.15-14.74-3.15
			c-7.46,0-12.81,1.26-16.07,3.76c-3.25,2.51-5.15,6.81-5.69,12.91h-25.22c1.49-23.86,17.22-35.79,47.18-35.79
			c29.15,0,43.72,10.51,43.72,31.52v55.92C1693.25,188.25,1694.67,194.89,1697.52,198.96z M1641.39,183.1c8,0,14.51-2.2,19.52-6.61
			c5.01-4.4,7.52-10.74,7.52-19.02v-9.56c-2.44,2.17-6.44,3.59-12,4.27l-13.83,1.63c-6.78,0.81-11.63,2.41-14.54,4.78
			c-2.92,2.37-4.37,5.8-4.37,10.27s1.53,7.97,4.58,10.47C1631.32,181.85,1635.69,183.1,1641.39,183.1z"/>
		<path d="M1770.32,91.58c14.37,0,25.83,4.95,34.37,14.85c8.4,10.03,12.61,23.39,12.61,40.06c0,16.54-4.2,29.83-12.61,39.86
			c-8.54,10.03-20,15.05-34.37,15.05c-14.78,0-25.96-5.83-33.56-17.49v15.05h-24.61V54.16h25.62v53.49
			C1745.24,96.94,1756.09,91.58,1770.32,91.58z M1744.5,171.51c4.61,5.83,11.18,8.74,19.73,8.74c8.4,0,15.05-3.05,19.93-9.15
			c4.74-5.96,7.12-14.44,7.12-25.42c0-10.71-2.34-18.88-7.02-24.51c-4.68-5.62-11.36-8.44-20.03-8.44c-8.54,0-15.19,2.92-19.93,8.74
			c-4.75,5.83-7.12,14.17-7.12,25.01C1737.17,157.47,1739.61,165.81,1744.5,171.51z"/>
		<path d="M1873.43,201.81c-30.64,0-46.64-12.07-48-36.2h25.01c0.68,6.51,2.81,11.12,6.41,13.83c3.59,2.71,9.25,4.07,16.98,4.07
			c13.83,0,20.74-4.2,20.74-12.61c0-3.79-1.49-6.71-4.47-8.74c-2.98-2.03-8.34-3.73-16.07-5.08l-12-2.03
			c-22.91-3.79-34.37-14.37-34.37-31.73c0-9.89,3.79-17.66,11.39-23.29c7.59-5.62,18.3-8.44,32.13-8.44
			c29.96,0,45.42,11.86,46.37,35.59h-24.2c-0.27-6.23-2.24-10.68-5.9-13.32c-3.66-2.64-9.09-3.97-16.27-3.97
			c-12.2,0-18.3,4.07-18.3,12.2c0,3.53,1.35,6.27,4.07,8.24c2.71,1.97,7.18,3.49,13.42,4.58l13.22,2.03
			c12.74,2.31,21.99,5.97,27.76,10.98c5.76,5.02,8.64,12,8.64,20.95c0,10.58-4.07,18.71-12.2,24.4
			C1899.66,198.96,1888.2,201.81,1873.43,201.81z"/>
	</g>
	<g>
		<polygon points="85.17,141.81 85.17,256.11 0,256.11 0,214.5 		"/>
		<rect width="85.17" height="141.81"/>
		<polygon points="280.03,256.11 172.72,256.11 85.17,141.81 192.48,141.81 		"/>
		<polygon points="280.03,114.3 280.03,0 365.2,0 365.2,41.61 		"/>
		<rect x="280.03" y="114.3" width="85.17" height="141.81"/>
		<polygon points="85.17,0 192.48,0 280.03,114.3 172.72,114.3 		"/>
	</g>
</g>
<rect x="-1929.69" y="-68.58" class="st0" width="238.72" height="238.72"/>
<rect x="-1929.69" y="233.48" class="st1" width="238.72" height="238.72"/>
<rect x="-1636.88" y="-68.58" width="238.72" height="238.72"/>
<rect x="-1636.88" y="233.48" class="st2" width="238.72" height="238.72"/>
<rect x="-1347.16" y="-68.58" class="st3" width="238.72" height="238.72"/>
<rect x="-1054.35" y="-68.58" class="st4" width="238.72" height="238.72"/>
<rect x="-1347.16" y="233.48" class="st5" width="238.72" height="238.72"/>
</svg>
